<?xml version="1.0" encoding="utf-8"?>
<!-- Generator: Adobe Illustrator 25.2.3, SVG Export Plug-In . SVG Version: 6.00 Build 0)  -->
<svg version="1.1" id="Capa_1" xmlns="http://www.w3.org/2000/svg" xmlns:xlink="http://www.w3.org/1999/xlink" x="0px" y="0px"
	 viewBox="0 0 595.28 595.28" style="enable-background:new 0 0 595.28 595.28;" xml:space="preserve">
<g>
	<g>
		<path d="M488.47,6.15c15.77,3.38,27.09,13.42,37.9,24.62c15.55,16.12,31.67,31.68,47.42,47.61c17.76,17.97,21.17,40.98,9.19,62.45
			c-2.1,3.76-4.87,7.27-7.85,10.4c-7.58,7.98-15.45,15.67-23.69,23.97c-43.26-43.72-86.31-87.23-129.73-131.1
			c15.58-14.98,28.23-32.99,50.79-37.95C477.83,6.15,483.15,6.15,488.47,6.15z"/>
		<path d="M398.67,68.04c42.74,43.2,85.73,86.65,128.28,129.65C414.43,310.21,302.17,422.48,190.36,534.28
			C147.8,491.71,104.5,448.4,61.45,405.34C173.25,293.51,285.78,180.96,398.67,68.04z"/>
		<path d="M47.61,441.93c35.77,35.75,71.15,71.12,106.81,106.78c-48.49,13.63-97.2,27.33-147.1,41.36
			C20.9,540.17,34.25,491.06,47.61,441.93z"/>
	</g>
</g>
</svg>
